<svg width="220" height="27" viewBox="0 0 220 27" fill="none" xmlns="http://www.w3.org/2000/svg">
<g clip-path="url(#clip0_12409_3818)">
<g clip-path="url(#clip1_12409_3818)">
<path d="M38.8011 8.63414H34.1922C34.0201 8.63414 33.8849 8.76642 33.8849 8.93478V11.0633C33.8849 11.2316 34.0201 11.3639 34.1922 11.3639H38.3341C38.5062 11.3639 38.6414 11.4962 38.6414 11.6645V14.6588C38.6414 14.8272 38.5062 14.9595 38.3341 14.9595H34.1922C34.0201 14.9595 33.8849 15.0917 33.8849 15.2601V21.0683C33.8849 21.2367 33.7497 21.369 33.5777 21.369H29.8536C29.6816 21.369 29.5464 21.2367 29.5464 21.0683V5.33921C29.5464 5.17085 29.6816 5.03857 29.8536 5.03857H38.8011C38.9732 5.03857 39.1084 5.17085 39.1084 5.33921V8.33351C39.1084 8.50187 38.9732 8.63414 38.8011 8.63414Z" fill="#FF6446"/>
<path d="M40.7061 13.192C40.7061 11.9774 40.9396 10.847 41.3943 9.80084C41.8491 8.75463 42.4882 7.84071 43.2994 7.05906C44.1105 6.27742 45.0815 5.66413 46.2122 5.23122C47.3429 4.78628 48.5843 4.56982 49.9362 4.56982C51.2882 4.56982 52.5172 4.78628 53.648 5.23122C54.7787 5.67615 55.7619 6.27742 56.5731 7.05906C57.3966 7.84071 58.0234 8.75463 58.4904 9.80084C58.9575 10.847 59.1787 11.9774 59.1787 13.192C59.1787 14.4065 58.9452 15.5369 58.4904 16.5831C58.0357 17.6293 57.3966 18.5432 56.5731 19.3249C55.7496 20.1065 54.7787 20.7198 53.648 21.1527C52.5172 21.5856 51.2759 21.8141 49.9362 21.8141C48.5966 21.8141 47.3429 21.5977 46.2122 21.1527C45.0815 20.7078 44.1105 20.1065 43.2994 19.3249C42.4882 18.5432 41.8491 17.6293 41.3943 16.5831C40.9396 15.5369 40.7061 14.4065 40.7061 13.192ZM45.2413 13.192C45.2413 13.8413 45.3642 14.4426 45.6223 14.9837C45.8804 15.5249 46.2122 16.0059 46.6424 16.4148C47.0725 16.8236 47.5642 17.1363 48.1418 17.3527C48.7072 17.5812 49.3094 17.6894 49.9485 17.6894C50.5876 17.6894 51.1776 17.5812 51.7552 17.3527C52.3206 17.1243 52.8245 16.8116 53.2547 16.4148C53.6848 16.0059 54.029 15.5369 54.2871 14.9837C54.5329 14.4306 54.6681 13.8413 54.6681 13.192C54.6681 12.5426 54.5452 11.9413 54.2871 11.4002C54.029 10.847 53.6971 10.3781 53.2547 9.96919C52.8245 9.56033 52.3206 9.24767 51.7552 9.03122C51.1899 8.80274 50.5876 8.69451 49.9485 8.69451C49.3094 8.69451 48.7195 8.80274 48.1418 9.03122C47.5764 9.2597 47.0725 9.57236 46.6424 9.96919C46.2122 10.3781 45.8804 10.847 45.6223 11.4002C45.3642 11.9534 45.2413 12.5426 45.2413 13.192Z" fill="#FF6446"/>
<path d="M65.7295 5.03857C65.9016 5.03857 66.0368 5.17085 66.0368 5.33921V13.9133C66.0368 14.3943 66.0491 14.8753 66.086 15.3803C66.1228 15.8734 66.2334 16.3303 66.4178 16.7272C66.6022 17.124 66.8971 17.4607 67.2904 17.7133C67.6837 17.9658 68.2491 18.0981 68.9742 18.0981C69.6994 18.0981 70.2524 17.9658 70.6457 17.7133C71.039 17.4607 71.3217 17.136 71.5184 16.7272C71.715 16.3183 71.8256 15.8734 71.8625 15.3803C71.8994 14.8873 71.9116 14.3943 71.9116 13.9133V5.33921C71.9116 5.17085 72.0468 5.03857 72.2189 5.03857H75.9184C76.0904 5.03857 76.2256 5.17085 76.2256 5.33921V14.5025C76.2256 17.0398 75.6357 18.8917 74.4435 20.0702C73.2636 21.2367 71.4323 21.8259 68.9742 21.8259C66.5161 21.8259 64.6848 21.2367 63.4927 20.0702C62.3005 18.9038 61.6982 17.0519 61.6982 14.5025V5.33921C61.6982 5.17085 61.8334 5.03857 62.0055 5.03857H65.7295Z" fill="#FF6446"/>
<path d="M79.5073 21.0563V5.33921C79.5073 5.17085 79.6425 5.03857 79.8146 5.03857H83.6984C83.7967 5.03857 83.8827 5.08668 83.9442 5.15883L91.3062 14.3341C91.4906 14.5626 91.8593 14.4303 91.8593 14.1538V5.35123C91.8593 5.18288 91.9945 5.0506 92.1665 5.0506H95.866C96.038 5.0506 96.1732 5.18288 96.1732 5.35123V21.0683C96.1732 21.2367 96.038 21.369 95.866 21.369H92.0068C91.9084 21.369 91.8224 21.3209 91.761 21.2487L84.3989 12.0734C84.2146 11.8449 83.8459 11.9772 83.8459 12.2538V21.0563C83.8459 21.2247 83.7107 21.3569 83.5386 21.3569H79.8146C79.6425 21.3569 79.5073 21.2247 79.5073 21.0563Z" fill="#FF6446"/>
<path d="M99.4302 5.33921C99.4302 5.17085 99.5654 5.03857 99.7374 5.03857H105.846C106.977 5.03857 108.046 5.26706 109.041 5.71199C110.037 6.15693 110.909 6.75819 111.647 7.49174C112.397 8.23731 112.974 9.10313 113.404 10.0892C113.835 11.0753 114.044 12.1095 114.044 13.1917C114.044 14.274 113.835 15.2841 113.417 16.2822C112.999 17.2683 112.409 18.1341 111.672 18.8917C110.934 19.6493 110.061 20.2386 109.066 20.6835C108.07 21.1285 107.001 21.3569 105.846 21.3569H99.7374C99.5654 21.3569 99.4302 21.2247 99.4302 21.0563V5.33921ZM103.769 17.7614H104.764C105.514 17.7614 106.19 17.6411 106.78 17.4126C107.37 17.1841 107.861 16.8595 108.267 16.4626C108.673 16.0538 108.98 15.5848 109.201 15.0196C109.41 14.4664 109.521 13.8531 109.521 13.1917C109.521 12.5303 109.41 11.9411 109.189 11.3759C108.968 10.8107 108.648 10.3297 108.242 9.92085C107.837 9.51199 107.345 9.19933 106.755 8.97085C106.165 8.74237 105.502 8.62212 104.764 8.62212H103.769V17.7614Z" fill="#FF6446"/>
<path d="M125.781 8.63414H121.246C121.074 8.63414 120.939 8.76642 120.939 8.93478V11.0633C120.939 11.2316 121.074 11.3639 121.246 11.3639H125.498C125.67 11.3639 125.806 11.4962 125.806 11.6645V14.6588C125.806 14.8272 125.67 14.9595 125.498 14.9595H121.246C121.074 14.9595 120.939 15.0917 120.939 15.2601V17.4728C120.939 17.6411 121.074 17.7734 121.246 17.7734H125.781C125.953 17.7734 126.088 17.9057 126.088 18.074V21.0683C126.088 21.2367 125.953 21.369 125.781 21.369H116.907C116.735 21.369 116.6 21.2367 116.6 21.0683V5.33921C116.6 5.17085 116.735 5.03857 116.907 5.03857H125.781C125.953 5.03857 126.088 5.17085 126.088 5.33921V8.33351C126.088 8.50187 125.953 8.63414 125.781 8.63414Z" fill="#FF6446"/>
<path d="M142.238 21.3569H137.629C137.531 21.3569 137.432 21.3088 137.371 21.2247L133.893 15.9455C133.721 15.693 133.327 15.8133 133.327 16.1139V21.0683C133.327 21.2367 133.192 21.369 133.02 21.369H129.296C129.124 21.369 128.989 21.2367 128.989 21.0683V5.33921C128.989 5.17085 129.124 5.03857 129.296 5.03857H135.736C136.67 5.03857 137.482 5.17085 138.17 5.43541C138.858 5.69997 139.436 6.07275 139.878 6.52971C140.333 6.98668 140.665 7.52782 140.898 8.12908C141.132 8.73035 141.242 9.37971 141.242 10.0772C141.242 11.3158 140.935 12.3259 140.321 13.0955C139.78 13.769 139.03 14.25 138.047 14.5506C137.838 14.6107 137.752 14.8512 137.875 15.0196L142.471 20.8759C142.631 21.0683 142.471 21.3569 142.226 21.3569H142.238ZM133.327 12.3259H134.151C135.011 12.3259 135.663 12.1576 136.117 11.8088C136.572 11.4601 136.806 10.9671 136.806 10.3177C136.806 9.66832 136.572 9.17528 136.117 8.82655C135.663 8.47782 134.999 8.30946 134.151 8.30946H133.327V12.3379V12.3259Z" fill="#FF6446"/>
<path d="M159.482 9.21147C159.015 8.83869 158.535 8.5621 158.068 8.38173C157.601 8.20135 157.134 8.11717 156.692 8.11717C156.126 8.11717 155.672 8.24945 155.315 8.50198C154.959 8.76654 154.787 9.10324 154.787 9.52413C154.787 9.81274 154.873 10.0532 155.057 10.2336C155.229 10.426 155.463 10.5824 155.758 10.7267C156.053 10.871 156.372 10.9792 156.728 11.0874C157.085 11.1957 157.441 11.2919 157.798 11.4121C159.211 11.8691 160.256 12.4944 160.907 13.264C161.559 14.0336 161.891 15.0438 161.891 16.2824C161.891 17.1241 161.743 17.8817 161.46 18.5551C161.178 19.2286 160.747 19.8178 160.194 20.2988C159.641 20.7798 158.965 21.1526 158.154 21.4292C157.355 21.6938 156.434 21.826 155.426 21.826C153.41 21.826 151.53 21.2608 149.797 20.1425C149.661 20.0583 149.612 19.8779 149.698 19.7457L151.247 16.8957C151.333 16.7273 151.566 16.6912 151.714 16.8115C152.267 17.2564 152.808 17.5931 153.349 17.8216C153.988 18.0982 154.615 18.2305 155.229 18.2305C155.942 18.2305 156.458 18.0741 156.815 17.7494C157.171 17.4248 157.331 17.076 157.331 16.6672C157.331 16.4267 157.282 16.2102 157.196 16.0298C157.109 15.8494 156.962 15.6811 156.753 15.5368C156.544 15.3805 156.274 15.2482 155.942 15.1159C155.61 14.9836 155.204 14.8393 154.737 14.683C154.172 14.5146 153.631 14.3222 153.09 14.1058C152.55 13.9013 152.07 13.6127 151.653 13.276C151.235 12.9273 150.89 12.4944 150.632 11.9653C150.374 11.4362 150.251 10.7748 150.251 9.95704C150.251 9.13932 150.387 8.4178 150.657 7.75641C150.927 7.09502 151.308 6.54185 151.812 6.07286C152.304 5.60388 152.906 5.24312 153.619 4.97856C154.332 4.714 155.131 4.59375 156.016 4.59375C156.839 4.59375 157.712 4.70198 158.609 4.93046C159.408 5.13489 160.182 5.41147 160.92 5.77223C161.079 5.84438 161.128 6.03679 161.055 6.18109L159.469 9.2235L159.482 9.21147Z" fill="#FF6446"/>
<path d="M167.262 5.25534L169.806 14.599C169.879 14.8876 170.297 14.8996 170.396 14.611L173.542 5.23129C173.579 5.11103 173.702 5.02686 173.837 5.02686H176.848C176.983 5.02686 177.094 5.11103 177.143 5.23129L180.29 14.611C180.388 14.8996 180.793 14.8876 180.879 14.599L183.424 5.25534C183.46 5.12306 183.583 5.02686 183.719 5.02686H187.602C187.811 5.02686 187.959 5.21926 187.897 5.41167L183.104 21.1288C183.067 21.261 182.944 21.3452 182.809 21.3452H178.839C178.704 21.3452 178.593 21.261 178.544 21.1408L175.631 12.7231C175.533 12.4465 175.14 12.4465 175.054 12.7231L172.141 21.1408C172.104 21.261 171.981 21.3452 171.846 21.3452H167.864C167.729 21.3452 167.606 21.261 167.569 21.1288L162.776 5.41167C162.714 5.21926 162.862 5.02686 163.071 5.02686H166.954C167.089 5.02686 167.212 5.12306 167.249 5.25534H167.262Z" fill="#FF6446"/>
<path d="M198.664 18.519H192.912C192.777 18.519 192.666 18.6031 192.617 18.7234L191.769 21.1525C191.732 21.2728 191.609 21.3569 191.474 21.3569H187.516C187.295 21.3569 187.148 21.1405 187.234 20.9481L193.354 5.23098C193.403 5.11073 193.514 5.03857 193.637 5.03857H197.951C198.074 5.03857 198.197 5.11073 198.234 5.23098L204.354 20.9481C204.428 21.1405 204.281 21.3569 204.072 21.3569H200.114C199.979 21.3569 199.868 21.2728 199.819 21.1525L198.971 18.7234C198.934 18.6031 198.811 18.519 198.676 18.519H198.664ZM197.582 14.8993L196.07 10.6784C195.972 10.4139 195.591 10.4139 195.493 10.6784L193.981 14.8993C193.907 15.0917 194.055 15.2962 194.276 15.2962H197.3C197.508 15.2962 197.656 15.0917 197.595 14.8993H197.582Z" fill="#FF6446"/>
<path d="M210.204 21.3569H206.48C206.308 21.3569 206.173 21.2247 206.173 21.0563V5.33921C206.173 5.17085 206.308 5.03857 206.48 5.03857H213.08C214.949 5.03857 216.386 5.51959 217.382 6.46959C218.378 7.41959 218.869 8.76642 218.869 10.4981C218.869 12.2297 218.365 13.5765 217.382 14.5266C216.386 15.4766 214.949 15.9576 213.08 15.9576H210.819C210.647 15.9576 210.512 16.0898 210.512 16.2582V21.0683C210.512 21.2367 210.376 21.369 210.204 21.369V21.3569ZM210.512 12.5303H211.95C213.547 12.5303 214.334 11.8569 214.334 10.4981C214.334 9.13921 213.535 8.46579 211.95 8.46579H210.512V12.5303Z" fill="#FF6446"/>
<path d="M18.0179 0H8.75084C8.6648 0 8.57877 0.036076 8.51732 0.0962025L0.098324 8.33355C0.098324 8.33355 0 8.47785 0 8.56203V17.6291C0 17.8095 0.147486 17.9538 0.331844 17.9538H4.24022C4.42458 17.9538 4.57207 17.8095 4.57207 17.6291V4.78608C4.57207 4.6057 4.71955 4.46139 4.90391 4.46139H18.0302C18.2145 4.46139 18.362 4.31709 18.362 4.13671V0.324684C18.362 0.144304 18.2145 0 18.0302 0H18.0179Z" fill="#FF6446"/>
<path d="M0.479304 26.3713H9.74634C9.83238 26.3713 9.91841 26.3352 9.97986 26.2751L18.3989 18.0377C18.3989 18.0377 18.4972 17.8934 18.4972 17.8093V8.74216C18.4972 8.56178 18.3497 8.41748 18.1653 8.41748H14.257C14.0726 8.41748 13.9251 8.56178 13.9251 8.74216V21.5852C13.9251 21.7656 13.7776 21.9099 13.5933 21.9099H0.479304C0.294947 21.9099 0.147461 22.0542 0.147461 22.2346V26.0586C0.147461 26.239 0.294947 26.3833 0.479304 26.3833V26.3713Z" fill="#FF6446"/>
<path d="M11.8726 10.2093H8.23457C8.14853 10.2093 8.0625 10.2454 8.00105 10.3055L5.94853 12.3137C5.73959 12.5182 5.88708 12.8549 6.18205 12.8549H11.8726C12.0569 12.8549 12.2044 12.7106 12.2044 12.5302V10.5219C12.2044 10.3416 12.0569 10.1973 11.8726 10.1973V10.2093Z" fill="#FF6446"/>
</g>
</g>
<defs>
<clipPath id="clip0_12409_3818">
<rect width="220" height="26.4557" fill="white"/>
</clipPath>
<clipPath id="clip1_12409_3818">
<rect width="220" height="26.4557" fill="white"/>
</clipPath>
</defs>
</svg>
